<?xml version="1.0" standalone="no"?>
<!DOCTYPE svg PUBLIC "-//W3C//DTD SVG 20010904//EN"
 "http://www.w3.org/TR/2001/REC-SVG-20010904/DTD/svg10.dtd">
<svg version="1.0" xmlns="http://www.w3.org/2000/svg"
 width="445.000000pt" height="250.000000pt" viewBox="0 0 445.000000 250.000000"
 preserveAspectRatio="xMidYMid meet">
<metadata>
Created by potrace 1.16, written by Peter Selinger 2001-2019
</metadata>
<g transform="translate(0.000000,250.000000) scale(0.100000,-0.100000)"
fill="#000000" stroke="none">
<path d="M1318 2335 c-116 -43 -205 -156 -210 -267 -1 -24 -1 -75 0 -114 l2
-70 53 50 c95 93 2 86 1233 86 1069 0 1083 0 1150 -21 107 -32 191 -84 274
-168 315 -318 226 -843 -175 -1037 -141 -68 -59 -64 -1434 -64 l-1244 0 6 -54
c11 -107 84 -207 186 -255 l56 -26 1165 0 c1164 0 1165 0 1246 22 291 77 514
255 644 513 194 384 115 850 -193 1147 -124 119 -257 197 -422 245 l-80 23
-1110 2 c-924 1 -1116 -1 -1147 -12z"/>
<path d="M100 1775 c0 -105 95 -233 203 -273 l58 -22 1661 0 1661 0 -7 47
c-14 104 -82 199 -181 251 l-50 27 -1672 3 -1673 2 0 -35z"/>
<path d="M544 1223 c10 -67 59 -165 103 -204 21 -17 62 -44 93 -58 l55 -26
1315 0 1315 0 67 33 c103 51 169 141 184 251 l7 51 -1573 0 -1572 0 6 -47z"/>
</g>
</svg>
